<svg width="32" height="32" viewBox="0 0 32 32" fill="none" xmlns="http://www.w3.org/2000/svg">
<circle cx="16" cy="16" r="15.75" stroke="#0082C6" stroke-width="0.5"/>
<path d="M12.8 21.3334H10.1333V13.3334H12.8V21.3334ZM11.4672 12.2668C10.7296 12.2668 10.1333 11.6689 10.1333 10.9329C10.1333 10.1969 10.7307 9.6001 11.4672 9.6001C12.2021 9.6001 12.8 10.198 12.8 10.9329C12.8 11.6689 12.2021 12.2668 11.4672 12.2668ZM22.4 21.3334H19.8363V17.4401C19.8363 16.5116 19.8187 15.3174 18.5035 15.3174C17.1685 15.3174 16.9632 16.3286 16.9632 17.3729V21.3334H14.4V13.3276H16.8608V14.4214H16.8955C17.2379 13.7921 18.0747 13.1286 19.3227 13.1286C21.92 13.1286 22.4 14.7868 22.4 16.9425C22.4 16.9425 22.4 21.3334 22.4 21.3334Z" fill="#0082C6"/>
</svg>
