<svg width="32" height="32" viewBox="0 0 32 32" fill="none" xmlns="http://www.w3.org/2000/svg">
<circle cx="16" cy="16" r="15.75" stroke="white" stroke-width="0.5"/>
<path d="M16 15.405L22.39 11.3C22.1331 11.1073 21.8211 11.0022 21.5 11H10.5C10.1789 11.0022 9.86692 11.1073 9.61002 11.3L16 15.405Z" fill="white"/>
<path d="M16.27 16.4199L16.185 16.4599H16.145C16.099 16.4805 16.0501 16.4939 16 16.4999C15.9585 16.5051 15.9165 16.5051 15.875 16.4999H15.835L15.75 16.4599L9.05 12.1299C9.01799 12.2507 9.00119 12.3749 9 12.4999V19.4999C9 19.8977 9.15804 20.2792 9.43934 20.5605C9.72064 20.8418 10.1022 20.9999 10.5 20.9999H21.5C21.8978 20.9999 22.2794 20.8418 22.5607 20.5605C22.842 20.2792 23 19.8977 23 19.4999V12.4999C22.9988 12.3749 22.982 12.2507 22.95 12.1299L16.27 16.4199Z" fill="white"/>
</svg>
