<svg width="32" height="32" viewBox="0 0 32 32" fill="none" xmlns="http://www.w3.org/2000/svg">
<circle cx="16" cy="16" r="15.75" stroke="#0082C6" stroke-width="0.5"/>
<g clip-path="url(#clip0)">
<path d="M11.5443 9.14215C9.35696 9.60882 8 10.8262 8 12.3277C8 13.8198 9.76674 14.6597 10.9671 13.7378C11.3964 13.3904 11.5817 13.0042 11.6456 12.3479C11.6456 11.7393 11.4228 11.2117 11.0582 10.9277C10.9384 10.8192 10.8514 10.7007 10.8557 10.674C10.8759 10.6436 11.2101 10.5421 11.5949 10.4508C13.7823 9.91316 15.9089 11.4653 16.5468 14.0827C17.1569 16.5885 16.5459 19.9057 14.0152 21.0929C12.7797 21.6711 10.8456 21.5798 9.33671 20.8697C8.97215 20.6972 8.66835 20.5755 8.6481 20.5856C8.43083 21.021 8.29371 21.5099 8.12152 21.9653L8.63797 22.1784C10.6633 22.99 13.4177 23.0813 15.4329 22.4219C21.4013 20.4438 21.3164 11.4007 15.4329 9.38563C14.2448 8.97233 12.7799 8.87689 11.5443 9.14215Z" fill="#0082C6"/>
<ellipse cx="22.2786" cy="21.1741" rx="1.72152" ry="1.72464" fill="#0082C6"/>
</g>
<defs>
<clipPath id="clip0">
<rect width="16" height="14" fill="white" transform="translate(8 9)"/>
</clipPath>
</defs>
</svg>
