<svg width="32" height="32" viewBox="0 0 32 32" fill="none" xmlns="http://www.w3.org/2000/svg">
<circle cx="16" cy="16" r="15.75" stroke="#0082C6" stroke-width="0.5"/>
<path d="M22.6667 11.8666C22.1656 12.084 21.6356 12.2277 21.0933 12.2932C21.6654 11.9514 22.0942 11.4138 22.3 10.7799C21.7624 11.0999 21.1738 11.3254 20.56 11.4466C20.1497 11.0016 19.6033 10.7054 19.0065 10.6045C18.4098 10.5035 17.7964 10.6035 17.2625 10.8887C16.7287 11.1739 16.3046 11.6282 16.0568 12.1805C15.809 12.7327 15.7515 13.3515 15.8933 13.9399C14.8063 13.8849 13.743 13.6019 12.7724 13.1091C11.8019 12.6164 10.9459 11.925 10.26 11.0799C10.0194 11.5 9.89301 11.9758 9.89333 12.4599C9.89248 12.9095 10.0028 13.3523 10.2145 13.7489C10.4262 14.1456 10.7327 14.4837 11.1067 14.7332C10.672 14.7214 10.2466 14.6048 9.86666 14.3932V14.4266C9.86992 15.0565 10.0907 15.666 10.4915 16.1519C10.8924 16.6378 11.4488 16.9703 12.0667 17.0932C11.8288 17.1656 11.5819 17.2038 11.3333 17.2066C11.1613 17.2046 10.9896 17.1889 10.82 17.1599C10.9959 17.7018 11.3364 18.1753 11.794 18.5147C12.2517 18.854 12.8037 19.0423 13.3733 19.0532C12.4115 19.8101 11.2239 20.2231 9.99999 20.2266C9.77715 20.2273 9.55449 20.2139 9.33333 20.1866C10.5829 20.9934 12.0392 21.4217 13.5267 21.4199C14.5531 21.4306 15.5714 21.2366 16.5221 20.8493C17.4727 20.462 18.3367 19.8892 19.0635 19.1642C19.7903 18.4393 20.3653 17.5768 20.755 16.6272C21.1448 15.6775 21.3414 14.6597 21.3333 13.6332C21.3333 13.5199 21.3333 13.3999 21.3333 13.2799C21.8565 12.8898 22.3076 12.4115 22.6667 11.8666Z" fill="#0082C6"/>
</svg>
