<svg width="32" height="32" viewBox="0 0 32 32" fill="none" xmlns="http://www.w3.org/2000/svg">
<circle cx="16" cy="16" r="15.75" stroke="white" stroke-width="0.5"/>
<g clip-path="url(#clip0)">
<path fill-rule="evenodd" clip-rule="evenodd" d="M21.6692 10.3252C20.1653 8.82656 18.1651 8.00084 16.0342 8C11.6435 8 8.06995 11.5564 8.0682 15.9279C8.06761 17.3252 8.43444 18.6892 9.1315 19.8915L8.0014 24L12.2243 22.8975C13.3878 23.5291 14.6978 23.862 16.031 23.8625H16.0343C20.4246 23.8625 23.9984 20.3056 24.0002 15.9342C24.001 13.8157 23.1732 11.8237 21.6692 10.3252ZM16.0343 22.5235H16.0316C14.8435 22.523 13.6783 22.2054 12.6617 21.6049L12.4199 21.4621L9.91403 22.1164L10.5829 19.6847L10.4255 19.4354C9.7627 18.3861 9.41264 17.1735 9.41316 15.9284C9.41462 12.295 12.3848 9.33905 16.0369 9.33905C17.8053 9.33972 19.4678 10.0261 20.7178 11.2716C21.9679 12.5172 22.6559 14.1729 22.6552 15.9337C22.6537 19.5673 19.6836 22.5235 16.0343 22.5235ZM19.666 17.5881C19.467 17.489 18.4884 17.0097 18.3059 16.9436C18.1235 16.8775 17.9908 16.8444 17.8581 17.0428C17.7254 17.2411 17.344 17.6873 17.2278 17.8195C17.1118 17.9517 16.9957 17.9683 16.7966 17.8691C16.5976 17.7699 15.9562 17.5607 15.196 16.8858C14.6043 16.3606 14.2048 15.7118 14.0887 15.5135C13.9726 15.3151 14.0763 15.2079 14.176 15.1092C14.2655 15.0204 14.375 14.8778 14.4745 14.7621C14.574 14.6464 14.6072 14.5638 14.6735 14.4316C14.7399 14.2994 14.7067 14.1837 14.657 14.0845C14.6072 13.9854 14.2092 13.0103 14.0433 12.6136C13.8817 12.2273 13.7176 12.2796 13.5954 12.2736C13.4795 12.2678 13.3467 12.2666 13.214 12.2666C13.0813 12.2666 12.8657 12.3162 12.6832 12.5145C12.5008 12.7128 11.9866 13.1921 11.9866 14.1671C11.9866 15.1422 12.6998 16.0842 12.7993 16.2164C12.8988 16.3486 14.2028 18.3496 16.1995 19.2077C16.6744 19.4118 17.0451 19.5337 17.3342 19.6251C17.811 19.7758 18.2449 19.7545 18.5879 19.7035C18.9703 19.6467 19.7655 19.2243 19.9314 18.7615C20.0973 18.2988 20.0973 17.9021 20.0475 17.8195C19.9978 17.7369 19.8651 17.6873 19.666 17.5881Z" fill="white"/>
</g>
<defs>
<clipPath id="clip0">
<rect width="16" height="16" fill="white" transform="translate(8 8)"/>
</clipPath>
</defs>
</svg>
